# xmcd
#
# Track frame offsets:
#	150
#	10660
#	21487
#	31852
#	41810
#	57912
#	69507
#	79627
#	91610
#	102002
#	115500
#	127435
#
# Disc length: 1846 seconds
#
# Revision: 0
# Processed by: cddbd v1.4PL0 Copyright (c) Steve Scherf et al.
# Submitted via: audiograbber 1.81.01
#
DISCID=9007340c
DTITLE=Los Indios Tabajars - I Grandi Successi Originali cd2
DYEAR=1900
DGENRE=pop
TTITLE0=Amapola
TTITLE1=Love is a many splendored thing
TTITLE2=Solo più che mai (Strangers In the night)
TTITLE3=El mar (La mer)
TTITLE4=Senza luce (A whiter shade of pale)
TTITLE5=Fumo negli Occhi (Smoke gets in your eyes)
TTITLE6=L'arcobaleno (Over thè rainbow)
TTITLE7=Polvere di stelle (Stardust)
TTITLE8=Luna malinconica (Blue moon)
TTITLE9=Somewhere my love
TTITLE10=Scandalo al sole
TTITLE11=Ragazza d'ipanema 
EXTD=
EXTT0=
EXTT1=
EXTT2=
EXTT3=
EXTT4=
EXTT5=
EXTT6=
EXTT7=
EXTT8=
EXTT9=
EXTT10=
EXTT11=
PLAYORDER=
